<mxfile host="app.diagrams.net" modified="2023-10-14T10:21:29.972Z" agent="Mozilla/5.0 (Windows NT 10.0; Win64; x64) AppleWebKit/537.36 (KHTML, like Gecko) Chrome/118.0.0.0 Safari/537.36" etag="V7DHyiaCKot2FWAs0rnl" version="22.0.4" type="device">
  <diagram name="Page-1" id="rm9cIyZlC2s9ReQsmGpQ">
    <mxGraphModel dx="1101" dy="675" grid="0" gridSize="10" guides="1" tooltips="1" connect="1" arrows="1" fold="1" page="1" pageScale="1" pageWidth="827" pageHeight="1169" math="0" shadow="0">
      <root>
        <mxCell id="0" />
        <mxCell id="1" parent="0" />
        <mxCell id="VwqVisDq_C_JXGdn_91--1" value="Look inside&lt;br style=&quot;font-size: 20px;&quot;&gt;constructor of controller." style="rounded=1;whiteSpace=wrap;html=1;fontSize=20;" vertex="1" parent="1">
          <mxGeometry x="296" y="123" width="154" height="76" as="geometry" />
        </mxCell>
        <mxCell id="VwqVisDq_C_JXGdn_91--2" value="Store list of parameters." style="rounded=1;whiteSpace=wrap;html=1;fontSize=20;" vertex="1" parent="1">
          <mxGeometry x="296" y="234" width="154" height="76" as="geometry" />
        </mxCell>
        <mxCell id="VwqVisDq_C_JXGdn_91--3" value="Create input widgets for parameters." style="rounded=1;whiteSpace=wrap;html=1;fontSize=20;" vertex="1" parent="1">
          <mxGeometry x="296" y="343" width="154" height="76" as="geometry" />
        </mxCell>
        <mxCell id="VwqVisDq_C_JXGdn_91--4" value="Pass inputs to execute controller." style="rounded=1;whiteSpace=wrap;html=1;fontSize=20;" vertex="1" parent="1">
          <mxGeometry x="296" y="455" width="154" height="76" as="geometry" />
        </mxCell>
        <mxCell id="VwqVisDq_C_JXGdn_91--5" value="Select controller from drop down." style="rounded=1;whiteSpace=wrap;html=1;fontSize=20;" vertex="1" parent="1">
          <mxGeometry x="296" y="14" width="154" height="76" as="geometry" />
        </mxCell>
        <mxCell id="VwqVisDq_C_JXGdn_91--7" value="" style="endArrow=classic;html=1;rounded=0;exitX=0.5;exitY=1;exitDx=0;exitDy=0;entryX=0.5;entryY=0;entryDx=0;entryDy=0;" edge="1" parent="1" source="VwqVisDq_C_JXGdn_91--5" target="VwqVisDq_C_JXGdn_91--1">
          <mxGeometry width="50" height="50" relative="1" as="geometry">
            <mxPoint x="408" y="333" as="sourcePoint" />
            <mxPoint x="458" y="283" as="targetPoint" />
          </mxGeometry>
        </mxCell>
        <mxCell id="VwqVisDq_C_JXGdn_91--8" value="" style="endArrow=classic;html=1;rounded=0;exitX=0.5;exitY=1;exitDx=0;exitDy=0;entryX=0.5;entryY=0;entryDx=0;entryDy=0;" edge="1" parent="1" source="VwqVisDq_C_JXGdn_91--1" target="VwqVisDq_C_JXGdn_91--2">
          <mxGeometry width="50" height="50" relative="1" as="geometry">
            <mxPoint x="408" y="333" as="sourcePoint" />
            <mxPoint x="458" y="283" as="targetPoint" />
          </mxGeometry>
        </mxCell>
        <mxCell id="VwqVisDq_C_JXGdn_91--9" value="" style="endArrow=classic;html=1;rounded=0;exitX=0.5;exitY=1;exitDx=0;exitDy=0;entryX=0.5;entryY=0;entryDx=0;entryDy=0;" edge="1" parent="1" source="VwqVisDq_C_JXGdn_91--2" target="VwqVisDq_C_JXGdn_91--3">
          <mxGeometry width="50" height="50" relative="1" as="geometry">
            <mxPoint x="408" y="333" as="sourcePoint" />
            <mxPoint x="458" y="283" as="targetPoint" />
          </mxGeometry>
        </mxCell>
        <mxCell id="VwqVisDq_C_JXGdn_91--10" value="" style="endArrow=classic;html=1;rounded=0;exitX=0.5;exitY=1;exitDx=0;exitDy=0;entryX=0.5;entryY=0;entryDx=0;entryDy=0;" edge="1" parent="1" source="VwqVisDq_C_JXGdn_91--3" target="VwqVisDq_C_JXGdn_91--4">
          <mxGeometry width="50" height="50" relative="1" as="geometry">
            <mxPoint x="490.0000000000002" y="412" as="sourcePoint" />
            <mxPoint x="575" y="276" as="targetPoint" />
          </mxGeometry>
        </mxCell>
        <mxCell id="VwqVisDq_C_JXGdn_91--12" value="Associated widget type stored in dictionary lookup." style="rounded=0;whiteSpace=wrap;html=1;fontSize=20;" vertex="1" parent="1">
          <mxGeometry x="558" y="296" width="186" height="73" as="geometry" />
        </mxCell>
        <mxCell id="VwqVisDq_C_JXGdn_91--14" value="" style="endArrow=none;html=1;rounded=0;entryX=0;entryY=0.5;entryDx=0;entryDy=0;exitX=1;exitY=0.5;exitDx=0;exitDy=0;" edge="1" parent="1" source="VwqVisDq_C_JXGdn_91--3" target="VwqVisDq_C_JXGdn_91--12">
          <mxGeometry width="50" height="50" relative="1" as="geometry">
            <mxPoint x="408" y="333" as="sourcePoint" />
            <mxPoint x="458" y="283" as="targetPoint" />
          </mxGeometry>
        </mxCell>
      </root>
    </mxGraphModel>
  </diagram>
</mxfile>
